<svg width="210" height="37" viewBox="0 0 210 37" fill="none" xmlns="http://www.w3.org/2000/svg">
<path d="M35.3323 22.807C34.1641 25.233 32.2503 26.7531 29.6825 27.4756C27.0781 28.2094 24.8483 27.397 22.5928 25.6898C22.5414 25.6486 22.4679 25.6898 22.4679 25.7534V36.7082C22.4679 36.7531 22.4349 36.7868 22.3908 36.7868C21.8875 36.7868 19.0847 36.8055 17.9276 36.7868C17.8835 36.7868 17.8504 36.7531 17.8504 36.7082C17.8504 35.6524 17.8504 21.0211 17.8504 21.0211C17.8504 21.0211 13.0603 16.8728 11.2934 15.555C9.05991 13.8889 6.90728 14.312 5.62893 16.4385C4.33588 18.595 5.03751 21.3056 7.17912 22.4438C9.38685 23.6156 11.8591 22.7396 12.928 20.4034C13.064 20.1076 13.299 19.1903 13.299 19.1903C13.3174 19.1379 13.3835 19.1229 13.4276 19.1604C14.728 20.2274 15.8227 21.1896 17.0643 22.2379C17.09 22.2603 17.0974 22.2978 17.0827 22.3315C15.2349 26.5958 10.015 29.0331 5.67668 27.1948C1.14734 25.2742 -1.02733 20.1338 0.732241 15.5063C1.74611 12.8406 3.60854 11.0585 6.22402 10.0626C8.90563 9.04427 11.3154 9.91287 13.8905 11.3468C13.9419 11.3767 14.008 11.3356 14.008 11.2719V8.02967C14.008 5.95179 14.0337 2.83684 14.008 0.732757C14.008 0.68783 14.0411 0.650391 14.0852 0.650391H18.4345C18.4786 0.650391 18.5116 0.687832 18.5116 0.729016C18.5116 2.82187 18.5116 4.76122 18.5116 6.70058C18.5116 9.08546 18.5116 13.7841 18.5116 15.0608V15.3528C18.5116 15.3715 18.519 15.3902 18.53 15.4052C18.53 15.4052 18.53 15.4052 18.53 15.4089C18.5594 15.4389 18.5925 15.4689 18.6219 15.4988L18.6916 15.5699C19.0223 15.8957 19.3786 16.2588 19.7496 16.637L19.779 16.6669C21.3255 18.2468 23.1438 20.16 24.5104 21.4067C26.292 23.0316 27.6769 23.2338 29.3997 22.1855C30.9499 21.242 31.7103 19.4374 31.2952 17.6927C30.858 15.8695 29.3703 14.5741 27.5483 14.428C25.6418 14.2745 24.1173 15.3416 23.3202 17.382C23.2761 17.4906 23.1916 17.674 23.1071 17.8725C23.0924 17.9061 23.052 17.9136 23.03 17.8874L19.5108 14.3382C19.5108 14.3382 19.4925 14.3007 19.5035 14.282C21.6634 9.95405 26.8724 8.26554 31.2364 10.4258C35.696 12.6347 37.5474 18.1907 35.3286 22.807H35.3323Z" fill="#1A7847"/>
<rect x="44.0127" y="35.8467" width="165.233" height="0.860588" fill="#1A7847"/>
<path d="M44.2451 16.742V5.15723H46.7054C47.8846 5.15723 48.8168 5.2721 49.5003 5.50185C50.234 5.7263 50.9014 6.10981 51.499 6.65061C52.7086 7.74105 53.3152 9.17435 53.3152 10.9505C53.3152 12.7267 52.6853 14.1723 51.4239 15.2716C50.7904 15.8213 50.1266 16.2048 49.4341 16.4204C48.7864 16.636 47.8667 16.7438 46.6768 16.7438H44.2451V16.742ZM46.0148 15.0984H46.8128C47.6072 15.0984 48.2693 15.0154 48.7953 14.851C49.3214 14.676 49.7974 14.3986 50.2232 14.0186C51.0946 13.2339 51.5294 12.2106 51.5294 10.9505C51.5294 9.69041 51.0982 8.64946 50.2375 7.85946C49.4628 7.1543 48.3212 6.80084 46.811 6.80084H46.013V15.0984H46.0148Z" fill="white"/>
<path d="M62.013 6.80084H57.3106V9.58437H61.8752V11.228H57.3106V15.1002H62.013V16.7438H55.541V5.15723H62.013V6.80084Z" fill="white"/>
<path d="M70.1933 6.80084H66.1065V9.58437H70.0484V11.228H66.1065V16.742H64.3369V5.15723H70.1933V6.80084Z" fill="white"/>
<path d="M78.7181 6.80084H74.0157V9.58437H78.5803V11.228H74.0157V15.1002H78.7181V16.7438H72.2461V5.15723H78.7181V6.80084Z" fill="white"/>
<path d="M81.042 16.7412V4.36816L89.5949 13.2065V5.15639H91.3646V17.4464L82.8116 8.63095V16.7412H81.042Z" fill="white"/>
<path d="M100.807 6.88197L99.3718 7.72145C99.1034 7.26195 98.8475 6.9615 98.6042 6.82189C98.3501 6.66106 98.0244 6.58153 97.6236 6.58153C97.1315 6.58153 96.7254 6.71938 96.3997 6.99332C96.0759 7.26372 95.913 7.60304 95.913 8.01306C95.913 8.5786 96.3389 9.03281 97.1888 9.3792L98.359 9.85108C99.3109 10.2311 100.007 10.6959 100.447 11.2437C100.887 11.7916 101.107 12.4632 101.107 13.2585C101.107 14.3242 100.748 15.2043 100.028 15.8989C99.3038 16.5987 98.4055 16.9486 97.332 16.9486C96.3138 16.9486 95.4729 16.6517 94.8108 16.0561C94.1577 15.4606 93.7497 14.6228 93.5869 13.543L95.3798 13.1524C95.4603 13.8329 95.6035 14.303 95.8057 14.5628C96.1707 15.0629 96.7021 15.3139 97.4017 15.3139C97.9528 15.3139 98.4127 15.1318 98.7759 14.766C99.141 14.4002 99.3235 13.9389 99.3235 13.3787C99.3235 13.1542 99.2913 12.9474 99.2286 12.7601C99.166 12.5728 99.0658 12.3996 98.9316 12.2423C98.7974 12.085 98.6238 11.9365 98.4109 11.8004C98.198 11.6626 97.9457 11.5318 97.6505 11.4063L96.5178 10.9415C94.9128 10.2717 94.1094 9.29084 94.1094 8.00069C94.1094 7.13117 94.4458 6.40303 95.1204 5.81805C95.7931 5.22776 96.6323 4.93262 97.6343 4.93262C98.9871 4.93262 100.043 5.58299 100.801 6.88374L100.807 6.88197Z" fill="white"/>
<path d="M102.661 10.8973C102.661 9.26605 103.266 7.86633 104.477 6.69636C105.683 5.52639 107.131 4.94141 108.822 4.94141C110.513 4.94141 111.926 5.53169 113.121 6.71226C114.322 7.89284 114.922 9.31023 114.922 10.9662C114.922 12.6222 114.319 14.0449 113.114 15.206C111.905 16.3724 110.443 16.9539 108.73 16.9539C107.217 16.9539 105.857 16.4361 104.651 15.4004C103.323 14.2552 102.661 12.7547 102.661 10.8991V10.8973ZM104.447 10.9185C104.447 12.1998 104.882 13.2514 105.753 14.0767C106.619 14.902 107.619 15.3138 108.754 15.3138C109.985 15.3138 111.023 14.8932 111.869 14.0537C112.715 13.2036 113.138 12.168 113.138 10.9468C113.138 9.72555 112.721 8.67576 111.885 7.83982C111.055 7.00034 110.026 6.57971 108.8 6.57971C107.575 6.57971 106.549 7.00034 105.708 7.83982C104.867 8.67046 104.447 9.6955 104.447 10.9167V10.9185Z" fill="white"/>
<path d="M121.12 11.8041L124.75 16.7403H122.585L119.236 11.9985H118.917V16.7403H117.147V5.15723H119.221C120.771 5.15723 121.891 5.4453 122.578 6.01968C123.338 6.65945 123.718 7.506 123.718 8.55579C123.718 9.37583 123.48 10.081 123.004 10.6713C122.528 11.2616 121.9 11.6398 121.12 11.8041ZM118.917 10.4769H119.479C121.156 10.4769 121.993 9.84417 121.993 8.57876C121.993 7.39289 121.177 6.80084 119.547 6.80084H118.917V10.4769Z" fill="white"/>
<path d="M128.284 5.15723V16.742H126.515V5.15723H128.284Z" fill="white"/>
<path d="M137.991 13.9281H132.97L131.664 16.7416H129.757L135.56 4.42871L141.158 16.7416H139.221L137.989 13.9281H137.991ZM137.27 12.2845L135.531 8.3451L133.708 12.2845H137.27Z" fill="white"/>
<path d="M149.195 12.0374V16.742H147.426V5.15723H149.432C150.414 5.15723 151.156 5.22438 151.658 5.36047C152.164 5.49479 152.609 5.75105 152.994 6.12572C153.667 6.77609 154.005 7.59613 154.005 8.58583C154.005 9.64623 153.645 10.4875 152.926 11.106C152.207 11.7264 151.237 12.0356 150.017 12.0356H149.197L149.195 12.0374ZM149.195 10.4168H149.856C151.48 10.4168 152.295 9.79822 152.295 8.56286C152.295 7.3275 151.457 6.76902 149.781 6.76902H149.195V10.415V10.4168Z" fill="white"/>
<path d="M157.599 5.15674V12.1341C157.599 13.1291 157.763 13.8573 158.093 14.3168C158.583 14.9813 159.275 15.3153 160.166 15.3153C161.057 15.3153 161.757 14.9831 162.247 14.3168C162.577 13.8714 162.741 13.1433 162.741 12.1341V5.15674H164.511V12.6148C164.511 13.8361 164.126 14.8417 163.357 15.6317C162.491 16.5118 161.428 16.9519 160.166 16.9519C158.905 16.9519 157.844 16.5118 156.983 15.6317C156.214 14.8417 155.829 13.8361 155.829 12.6148V5.15674H157.599ZM162.856 2.04272L159.757 4.11402L158.914 3.41593L161.353 1L162.858 2.04272H162.856Z" fill="white"/>
<path d="M167.321 16.742V5.15723H169.084C169.869 5.15723 170.494 5.21732 170.961 5.33749C171.431 5.45767 171.829 5.66091 172.154 5.94545C172.483 6.2406 172.745 6.6082 172.936 7.04826C173.133 7.49363 173.233 7.94429 173.233 8.3985C173.233 9.22914 172.911 9.93253 172.269 10.5069C172.891 10.7172 173.383 11.0848 173.743 11.6097C174.108 12.1293 174.291 12.7355 174.291 13.4248C174.291 14.3296 173.967 15.0949 173.319 15.7205C172.929 16.1058 172.491 16.3727 172.006 16.5229C171.474 16.6678 170.809 16.7403 170.007 16.7403H167.325L167.321 16.742ZM169.091 10.1322H169.646C170.304 10.1322 170.785 9.98909 171.093 9.70101C171.399 9.41294 171.553 8.98878 171.553 8.42854C171.553 7.8683 171.396 7.46888 171.082 7.18611C170.768 6.90334 170.313 6.76196 169.715 6.76196H169.093V10.1305L169.091 10.1322ZM169.091 15.0984H170.184C170.984 15.0984 171.571 14.9429 171.947 14.6336C172.342 14.2978 172.539 13.8737 172.539 13.3576C172.539 12.8415 172.349 12.4368 171.97 12.0975C171.6 11.7617 170.939 11.5956 169.987 11.5956H169.091V15.1002V15.0984Z" fill="white"/>
<path d="M178.29 5.15723V15.0984H181.738V16.742H176.519V5.15723H178.288H178.29Z" fill="white"/>
<path d="M185.188 5.15723V16.742H183.418V5.15723H185.188Z" fill="white"/>
<path d="M196.673 5.77837V7.84968C195.65 7.0049 194.592 6.58251 193.497 6.58251C192.291 6.58251 191.277 7.0102 190.452 7.86558C189.622 8.71566 189.207 9.75662 189.207 10.9867C189.207 12.2167 189.622 13.2276 190.452 14.0636C191.282 14.8995 192.3 15.3166 193.506 15.3166C194.129 15.3166 194.659 15.2159 195.093 15.0162C195.337 14.9154 195.589 14.7811 195.849 14.6115C196.11 14.4418 196.384 14.2368 196.673 13.9964V16.1048C195.661 16.6704 194.598 16.9532 193.483 16.9532C191.807 16.9532 190.377 16.3752 189.191 15.2194C188.011 14.0547 187.421 12.648 187.421 11.0026C187.421 9.52687 187.915 8.21198 188.902 7.05615C190.117 5.64052 191.69 4.93359 193.619 4.93359C194.673 4.93359 195.691 5.21637 196.673 5.78191V5.77837Z" fill="white"/>
<path d="M206.078 13.9281H201.057L199.751 16.7416H197.844L203.647 4.42871L209.245 16.7416H207.307L206.076 13.9281H206.078ZM205.357 12.2845L203.618 8.3451L201.795 12.2845H205.357Z" fill="white"/>
<path d="M48.4017 24.0072H45.3813V25.7958H48.314V26.8509H45.3813V29.3375H48.4017V30.3926H44.2451V22.9521H48.4017V24.0072Z" fill="white"/>
<path d="M54.153 24.0602L53.2315 24.5993C53.0598 24.3041 52.8952 24.1115 52.7395 24.0213C52.5767 23.9188 52.3673 23.8676 52.1096 23.8676C51.7947 23.8676 51.5317 23.956 51.3241 24.1327C51.1166 24.3059 51.0128 24.525 51.0128 24.7884C51.0128 25.1507 51.2866 25.444 51.8323 25.665L52.5838 25.9689C53.1958 26.2128 53.6431 26.5115 53.9258 26.8632C54.2085 27.2149 54.3499 27.6461 54.3499 28.1569C54.3499 28.8408 54.1191 29.4064 53.6574 29.8535C53.1922 30.3024 52.6142 30.5286 51.9253 30.5286C51.2722 30.5286 50.7319 30.3378 50.306 29.956C49.8873 29.5743 49.6243 29.0352 49.5205 28.3425L50.671 28.0915C50.7229 28.528 50.8142 28.8302 50.9448 28.9981C51.1792 29.3198 51.521 29.4806 51.9701 29.4806C52.3244 29.4806 52.6196 29.364 52.8522 29.1289C53.0848 28.8939 53.2029 28.5969 53.2029 28.2382C53.2029 28.0933 53.1832 27.9607 53.1421 27.8405C53.1009 27.7204 53.0383 27.609 52.9524 27.5083C52.8665 27.4075 52.7556 27.3121 52.6178 27.2237C52.48 27.1354 52.319 27.0505 52.1293 26.971L51.4029 26.6723C50.3722 26.2411 49.8569 25.6119 49.8569 24.7831C49.8569 24.2246 50.0734 23.7563 50.5064 23.3816C50.9394 23.0034 51.478 22.8125 52.1204 22.8125C52.9882 22.8125 53.6664 23.2296 54.1548 24.0655L54.153 24.0602Z" fill="white"/>
<path d="M57.9386 24.0072V30.3908H56.8024V24.0072H55.0703V22.9521H59.6653V24.0072H57.9386Z" fill="white"/>
<path d="M64.6956 28.5861H61.4713L60.6321 30.3924H59.4082L63.1353 22.4854L66.7301 30.3924H65.4865L64.6956 28.5861ZM64.2322 27.5293L63.1157 25.0003L61.9455 27.5293H64.234H64.2322Z" fill="white"/>
<path d="M67.6709 30.3926V22.9521H69.2509C70.0077 22.9521 70.6072 23.0264 71.0455 23.1731C71.5179 23.318 71.9456 23.5636 72.3285 23.91C73.1051 24.6099 73.4951 25.5307 73.4951 26.6706C73.4951 27.8105 73.0907 28.7401 72.2802 29.4453C71.874 29.7988 71.4481 30.0444 71.0026 30.1823C70.5857 30.3201 69.9952 30.389 69.2312 30.389H67.6709V30.3926ZM68.8071 29.3375H69.3189C69.8288 29.3375 70.2547 29.2845 70.5929 29.1784C70.931 29.0653 71.237 28.8886 71.5108 28.6429C72.0708 28.1392 72.35 27.4818 72.35 26.6724C72.35 25.8629 72.0726 25.1949 71.5215 24.6877C71.0241 24.2352 70.2905 24.009 69.3206 24.009H68.8089V29.3375H68.8071Z" fill="white"/>
<path d="M74.5488 26.6388C74.5488 25.5907 74.9371 24.6929 75.7155 23.9401C76.4902 23.1889 77.4189 22.8125 78.505 22.8125C79.5911 22.8125 80.4983 23.1907 81.2659 23.9489C82.0371 24.7071 82.4218 25.6172 82.4218 26.6812C82.4218 27.7451 82.0353 28.6588 81.2606 29.4028C80.484 30.1522 79.5446 30.5251 78.446 30.5251C77.4744 30.5251 76.5994 30.1928 75.8264 29.5283C74.9747 28.7931 74.5488 27.8299 74.5488 26.637V26.6388ZM75.6958 26.6529C75.6958 27.4747 75.9749 28.1516 76.535 28.6818C77.0914 29.212 77.7338 29.4771 78.4621 29.4771C79.2529 29.4771 79.9186 29.2067 80.4625 28.6676C81.0065 28.1215 81.2767 27.457 81.2767 26.6723C81.2767 25.8876 81.0083 25.2143 80.4715 24.677C79.9382 24.138 79.278 23.8676 78.4907 23.8676C77.7034 23.8676 77.0449 24.138 76.5045 24.677C75.9642 25.2108 75.694 25.8682 75.694 26.6529H75.6958Z" fill="white"/>
<path d="M86.9346 30.3926V22.9521H88.5145C89.2714 22.9521 89.8708 23.0264 90.3092 23.1731C90.7816 23.318 91.2092 23.5636 91.5922 23.91C92.3687 24.6099 92.7588 25.5307 92.7588 26.6706C92.7588 27.8105 92.3544 28.7401 91.5438 29.4453C91.1377 29.7988 90.7118 30.0444 90.2663 30.1823C89.8494 30.3201 89.2589 30.389 88.4949 30.389H86.9346V30.3926ZM88.0726 29.3375H88.5843C89.0943 29.3375 89.5201 29.2845 89.8583 29.1784C90.1965 29.0653 90.5025 28.8886 90.7762 28.6429C91.3363 28.1392 91.6154 27.4818 91.6154 26.6724C91.6154 25.8629 91.3381 25.1949 90.787 24.6877C90.2895 24.2352 89.5559 24.009 88.5861 24.009H88.0744V29.3375H88.0726Z" fill="white"/>
<path d="M93.8145 26.6388C93.8145 25.5907 94.2027 24.6929 94.9811 23.9401C95.7559 23.1889 96.6845 22.8125 97.7706 22.8125C98.8567 22.8125 99.7639 23.1907 100.532 23.9489C101.303 24.7071 101.687 25.6172 101.687 26.6812C101.687 27.7451 101.301 28.6588 100.526 29.4028C99.7496 30.1522 98.8102 30.5251 97.7116 30.5251C96.74 30.5251 95.865 30.1928 95.092 29.5283C94.2403 28.7931 93.8145 27.8299 93.8145 26.637V26.6388ZM94.9596 26.6529C94.9596 27.4747 95.2387 28.1516 95.7988 28.6818C96.3553 29.212 96.9976 29.4771 97.7259 29.4771C98.5168 29.4771 99.1824 29.2067 99.7264 28.6676C100.27 28.1215 100.54 27.457 100.54 26.6723C100.54 25.8876 100.272 25.2143 99.7353 24.677C99.2021 24.138 98.5418 23.8676 97.7545 23.8676C96.9672 23.8676 96.3088 24.138 95.7684 24.677C95.228 25.2108 94.9578 25.8682 94.9578 26.6529H94.9596Z" fill="white"/>
<path d="M108.752 27.222L111.083 30.3926H109.693L107.542 27.3475H107.336V30.3926H106.2V22.9521H107.531C108.526 22.9521 109.246 23.1359 109.688 23.5053C110.176 23.9171 110.419 24.4597 110.419 25.1348C110.419 25.6615 110.267 26.1139 109.961 26.4939C109.655 26.8721 109.253 27.116 108.752 27.222ZM107.336 26.3684H107.698C108.775 26.3684 109.312 25.9619 109.312 25.1489C109.312 24.3872 108.788 24.0072 107.741 24.0072H107.336V26.3684Z" fill="white"/>
<path d="M113.352 22.9521V30.3926H112.216V22.9521H113.352Z" fill="white"/>
<path d="M114.785 26.6388C114.785 25.5907 115.173 24.6929 115.952 23.9401C116.727 23.1889 117.655 22.8125 118.741 22.8125C119.827 22.8125 120.735 23.1907 121.502 23.9489C122.273 24.7071 122.658 25.6172 122.658 26.6812C122.658 27.7451 122.272 28.6588 121.497 29.4028C120.72 30.1522 119.781 30.5251 118.682 30.5251C117.711 30.5251 116.836 30.1928 116.063 29.5283C115.211 28.7931 114.785 27.8299 114.785 26.637V26.6388ZM115.932 26.6529C115.932 27.4747 116.211 28.1516 116.771 28.6818C117.328 29.212 117.97 29.4771 118.698 29.4771C119.489 29.4771 120.155 29.2067 120.699 28.6676C121.243 28.1215 121.513 27.457 121.513 26.6723C121.513 25.8876 121.245 25.2143 120.708 24.677C120.175 24.138 119.514 23.8676 118.727 23.8676C117.94 23.8676 117.281 24.138 116.741 24.677C116.201 25.2108 115.93 25.8682 115.93 26.6529H115.932Z" fill="white"/>
<path d="M131.045 26.5182H134.156V26.7639C134.156 27.3223 134.09 27.8172 133.956 28.2484C133.825 28.6461 133.607 29.019 133.297 29.3671C132.598 30.1447 131.708 30.5336 130.629 30.5336C129.55 30.5336 128.674 30.1571 127.922 29.406C127.171 28.6514 126.795 27.7447 126.795 26.6879C126.795 25.631 127.178 24.6926 127.942 23.9414C128.706 23.1868 129.636 22.8086 130.731 22.8086C131.32 22.8086 131.869 22.927 132.379 23.1656C132.868 23.4042 133.347 23.7895 133.818 24.3214L133.007 25.0867C132.39 24.2737 131.637 23.8672 130.749 23.8672C129.953 23.8672 129.284 24.1394 128.743 24.682C128.203 25.2157 127.933 25.8837 127.933 26.6861C127.933 27.4885 128.234 28.1972 128.835 28.7344C129.397 29.2328 130.007 29.482 130.663 29.482C131.223 29.482 131.724 29.2964 132.17 28.9235C132.616 28.5471 132.864 28.0982 132.916 27.5751H131.037V26.52L131.045 26.5182Z" fill="white"/>
<path d="M138.14 27.222L140.471 30.3926H139.081L136.93 27.3475H136.726V30.3926H135.59V22.9521H136.921C137.916 22.9521 138.635 23.1359 139.077 23.5053C139.566 23.9171 139.809 24.4597 139.809 25.1348C139.809 25.6615 139.657 26.1139 139.351 26.4939C139.045 26.8721 138.642 27.116 138.141 27.222H138.14ZM136.724 26.3684H137.086C138.163 26.3684 138.7 25.9619 138.7 25.1489C138.7 24.3872 138.175 24.0072 137.129 24.0072H136.724V26.3684Z" fill="white"/>
<path d="M146.027 28.5861H142.802L141.963 30.3924H140.739L144.466 22.4854L148.061 30.3924H146.818L146.027 28.5861ZM145.563 27.5293L144.447 25.0003L143.277 27.5293H145.565H145.563Z" fill="white"/>
<path d="M149.002 30.3922V22.4463L154.495 28.1229V22.9535H155.631V30.8464L150.138 25.1856V30.3939H149.002V30.3922Z" fill="white"/>
<path d="M157.438 30.3926V22.9521H159.017C159.774 22.9521 160.374 23.0264 160.812 23.1731C161.285 23.318 161.712 23.5636 162.095 23.91C162.872 24.6099 163.262 25.5307 163.262 26.6706C163.262 27.8105 162.857 28.7401 162.047 29.4453C161.641 29.7988 161.215 30.0444 160.769 30.1823C160.352 30.3201 159.762 30.389 158.998 30.389H157.438V30.3926ZM158.574 29.3375H159.085C159.595 29.3375 160.021 29.2845 160.359 29.1784C160.698 29.0653 161.004 28.8886 161.277 28.6429C161.837 28.1392 162.117 27.4818 162.117 26.6724C162.117 25.8629 161.839 25.1949 161.288 24.6877C160.791 24.2352 160.057 24.009 159.087 24.009H158.576V29.3375H158.574Z" fill="white"/>
<path d="M168.848 24.0072H165.828V25.7958H168.76V26.8509H165.828V29.3375H168.848V30.3926H164.691V22.9521H168.848V24.0072Z" fill="white"/>
<path d="M173.423 30.3926V22.9521H175.003C175.76 22.9521 176.359 23.0264 176.797 23.1731C177.27 23.318 177.698 23.5636 178.08 23.91C178.857 24.6099 179.247 25.5307 179.247 26.6706C179.247 27.8105 178.843 28.7401 178.032 29.4453C177.626 29.7988 177.2 30.0444 176.755 30.1823C176.338 30.3201 175.747 30.389 174.983 30.389H173.423V30.3926ZM174.561 29.3375H175.073C175.583 29.3375 176.008 29.2845 176.347 29.1784C176.685 29.0653 176.991 28.8886 177.265 28.6429C177.825 28.1392 178.104 27.4818 178.104 26.6724C178.104 25.8629 177.826 25.1949 177.275 24.6877C176.778 24.2352 176.044 24.009 175.074 24.009H174.563V29.3375H174.561Z" fill="white"/>
<path d="M180.303 26.6388C180.303 25.5907 180.691 24.6929 181.469 23.9401C182.244 23.1889 183.173 22.8125 184.261 22.8125C185.349 22.8125 186.254 23.1907 187.022 23.9489C187.793 24.7071 188.178 25.6172 188.178 26.6812C188.178 27.7451 187.791 28.6588 187.016 29.4028C186.24 30.1522 185.3 30.5251 184.202 30.5251C183.23 30.5251 182.355 30.1928 181.582 29.5283C180.73 28.7931 180.305 27.8299 180.305 26.637L180.303 26.6388ZM181.448 26.6529C181.448 27.4747 181.727 28.1516 182.287 28.6818C182.844 29.212 183.486 29.4771 184.214 29.4771C185.005 29.4771 185.671 29.2067 186.215 28.6676C186.759 28.1215 187.029 27.457 187.029 26.6723C187.029 25.8876 186.76 25.2143 186.224 24.677C185.69 24.138 185.03 23.8676 184.243 23.8676C183.456 23.8676 182.797 24.138 182.257 24.677C181.716 25.2108 181.446 25.8682 181.446 26.6529H181.448Z" fill="white"/>
<path d="M196.947 24.0602L196.025 24.5993C195.854 24.3041 195.689 24.1115 195.533 24.0213C195.371 23.9188 195.161 23.8676 194.904 23.8676C194.589 23.8676 194.326 23.956 194.118 24.1327C193.911 24.3059 193.807 24.525 193.807 24.7884C193.807 25.1507 194.081 25.444 194.626 25.665L195.378 25.9689C195.99 26.2128 196.437 26.5115 196.72 26.8632C197.002 27.2149 197.144 27.6461 197.144 28.1569C197.144 28.8408 196.913 29.4064 196.451 29.8535C195.986 30.3024 195.408 30.5286 194.719 30.5286C194.066 30.5286 193.526 30.3378 193.1 29.956C192.681 29.5743 192.418 29.0352 192.314 28.3425L193.465 28.0915C193.517 28.528 193.608 28.8302 193.739 28.9981C193.973 29.3198 194.315 29.4806 194.764 29.4806C195.118 29.4806 195.414 29.364 195.646 29.1289C195.881 28.8939 195.997 28.5969 195.997 28.2382C195.997 28.0933 195.977 27.9607 195.936 27.8405C195.895 27.7204 195.832 27.609 195.746 27.5083C195.66 27.4075 195.55 27.3121 195.412 27.2237C195.276 27.1354 195.113 27.0505 194.923 26.971L194.197 26.6723C193.166 26.2411 192.651 25.6119 192.651 24.7831C192.651 24.2246 192.867 23.7563 193.3 23.3816C193.733 23.0034 194.272 22.8125 194.914 22.8125C195.782 22.8125 196.46 23.2296 196.949 24.0655L196.947 24.0602Z" fill="white"/>
<path d="M199.649 22.9521V27.4323C199.649 28.0721 199.754 28.5387 199.966 28.8338C200.281 29.2615 200.724 29.4753 201.297 29.4753C201.869 29.4753 202.319 29.2615 202.633 28.8338C202.845 28.5475 202.95 28.0809 202.95 27.4323V22.9521H204.086V27.7416C204.086 28.5263 203.839 29.1714 203.346 29.6786C202.789 30.2441 202.107 30.5269 201.297 30.5269C200.486 30.5269 199.806 30.2441 199.253 29.6786C198.76 29.1714 198.513 28.5263 198.513 27.7416V22.9521H199.649Z" fill="white"/>
<path d="M207.03 22.952V29.3355H209.245V30.3906H205.894V22.9502H207.03V22.952Z" fill="white"/>
</svg>
