<svg width="210" height="37" viewBox="0 0 210 37" fill="none" xmlns="http://www.w3.org/2000/svg">
<path d="M35.3323 22.8275C34.1641 25.2535 32.2503 26.7736 29.6825 27.4961C27.0781 28.2299 24.8483 27.4175 22.5928 25.7103C22.5414 25.6691 22.4679 25.7103 22.4679 25.7739V36.7287C22.4679 36.7736 22.4349 36.8073 22.3908 36.8073C21.8875 36.8073 19.0847 36.826 17.9276 36.8073C17.8835 36.8073 17.8504 36.7736 17.8504 36.7287C17.8504 35.6729 17.8504 21.0416 17.8504 21.0416C17.8504 21.0416 13.0603 16.8933 11.2934 15.5755C9.05991 13.9094 6.90728 14.3325 5.62893 16.459C4.33588 18.6155 5.03751 21.3261 7.17912 22.4643C9.38685 23.6361 11.8591 22.7601 12.928 20.4239C13.064 20.1281 13.299 19.2108 13.299 19.2108C13.3174 19.1584 13.3835 19.1434 13.4276 19.1809C14.728 20.2479 15.8227 21.2101 17.0643 22.2584C17.09 22.2808 17.0974 22.3183 17.0827 22.352C15.2349 26.6163 10.015 29.0536 5.67668 27.2153C1.14734 25.2947 -1.02733 20.1543 0.732241 15.5268C1.74611 12.8611 3.60854 11.079 6.22402 10.0831C8.90563 9.06478 11.3154 9.93338 13.8905 11.3673C13.9419 11.3973 14.008 11.3561 14.008 11.2924V8.05018C14.008 5.9723 14.0337 2.85735 14.008 0.753265C14.008 0.708338 14.0411 0.670898 14.0852 0.670898H18.4345C18.4786 0.670898 18.5116 0.70834 18.5116 0.749523C18.5116 2.84238 18.5116 4.78173 18.5116 6.72109C18.5116 9.10597 18.5116 13.8046 18.5116 15.0813V15.3733C18.5116 15.392 18.519 15.4107 18.53 15.4257C18.53 15.4257 18.53 15.4257 18.53 15.4295C18.5594 15.4594 18.5925 15.4894 18.6219 15.5193L18.6916 15.5904C19.0223 15.9162 19.3786 16.2793 19.7496 16.6575L19.779 16.6874C21.3255 18.2674 23.1438 20.1805 24.5104 21.4272C26.292 23.0521 27.6769 23.2543 29.3997 22.206C30.9499 21.2625 31.7103 19.4579 31.2952 17.7133C30.858 15.89 29.3703 14.5946 27.5483 14.4485C25.6418 14.295 24.1173 15.3621 23.3202 17.4025C23.2761 17.5111 23.1916 17.6945 23.1071 17.893C23.0924 17.9267 23.052 17.9341 23.03 17.9079L19.5108 14.3587C19.5108 14.3587 19.4925 14.3213 19.5035 14.3025C21.6634 9.97456 26.8724 8.28605 31.2364 10.4463C35.696 12.6552 37.5474 18.2112 35.3286 22.8275H35.3323Z" fill="#606470"/>
<rect x="44.0127" y="35.8672" width="165.233" height="0.860588" fill="#606470"/>
<path d="M44.2451 16.7625V5.17773H46.7054C47.8846 5.17773 48.8168 5.29261 49.5003 5.52236C50.234 5.74681 50.9014 6.13032 51.499 6.67112C52.7086 7.76156 53.3152 9.19486 53.3152 10.971C53.3152 12.7472 52.6853 14.1928 51.4239 15.2921C50.7904 15.8418 50.1266 16.2253 49.4341 16.4409C48.7864 16.6565 47.8667 16.7643 46.6768 16.7643H44.2451V16.7625ZM46.0148 15.1189H46.8128C47.6072 15.1189 48.2693 15.0359 48.7953 14.8715C49.3214 14.6965 49.7974 14.4191 50.2232 14.0391C51.0946 13.2544 51.5294 12.2311 51.5294 10.971C51.5294 9.71092 51.0982 8.66996 50.2375 7.87997C49.4628 7.17481 48.3212 6.82134 46.811 6.82134H46.013V15.1189H46.0148Z" fill="#606470"/>
<path d="M62.013 6.82134H57.3106V9.60488H61.8752V11.2485H57.3106V15.1207H62.013V16.7643H55.541V5.17773H62.013V6.82134Z" fill="#606470"/>
<path d="M70.1933 6.82134H66.1065V9.60488H70.0484V11.2485H66.1065V16.7625H64.3369V5.17773H70.1933V6.82134Z" fill="#606470"/>
<path d="M78.7181 6.82134H74.0157V9.60488H78.5803V11.2485H74.0157V15.1207H78.7181V16.7643H72.2461V5.17773H78.7181V6.82134Z" fill="#606470"/>
<path d="M81.042 16.7617V4.38867L89.5949 13.2271V5.1769H91.3646V17.4669L82.8116 8.65145V16.7617H81.042Z" fill="#606470"/>
<path d="M100.807 6.90248L99.3718 7.74196C99.1034 7.28246 98.8475 6.98201 98.6042 6.84239C98.3501 6.68157 98.0244 6.60204 97.6236 6.60204C97.1315 6.60204 96.7254 6.73989 96.3997 7.01382C96.0759 7.28422 95.913 7.62355 95.913 8.03357C95.913 8.59911 96.3389 9.05331 97.1888 9.39971L98.359 9.87159C99.3109 10.2516 100.007 10.7164 100.447 11.2642C100.887 11.8121 101.107 12.4837 101.107 13.279C101.107 14.3447 100.748 15.2248 100.028 15.9194C99.3038 16.6192 98.4055 16.9692 97.332 16.9692C96.3138 16.9692 95.4729 16.6722 94.8108 16.0767C94.1577 15.4811 93.7497 14.6434 93.5869 13.5635L95.3798 13.1729C95.4603 13.8534 95.6035 14.3235 95.8057 14.5833C96.1707 15.0834 96.7021 15.3344 97.4017 15.3344C97.9528 15.3344 98.4127 15.1523 98.7759 14.7865C99.141 14.4207 99.3235 13.9594 99.3235 13.3992C99.3235 13.1747 99.2913 12.9679 99.2286 12.7806C99.166 12.5933 99.0658 12.4201 98.9316 12.2628C98.7974 12.1055 98.6238 11.957 98.4109 11.8209C98.198 11.6831 97.9457 11.5523 97.6505 11.4268L96.5178 10.962C94.9128 10.2922 94.1094 9.31134 94.1094 8.0212C94.1094 7.15167 94.4458 6.42354 95.1204 5.83855C95.7931 5.24827 96.6323 4.95312 97.6343 4.95312C98.9871 4.95312 100.043 5.6035 100.801 6.90425L100.807 6.90248Z" fill="#606470"/>
<path d="M102.661 10.9178C102.661 9.28655 103.266 7.88683 104.477 6.71687C105.683 5.5469 107.131 4.96191 108.822 4.96191C110.513 4.96191 111.926 5.5522 113.121 6.73277C114.322 7.91334 114.922 9.33074 114.922 10.9867C114.922 12.6427 114.319 14.0654 113.114 15.2265C111.905 16.393 110.443 16.9744 108.73 16.9744C107.217 16.9744 105.857 16.4566 104.651 15.4209C103.323 14.2757 102.661 12.7752 102.661 10.9196V10.9178ZM104.447 10.939C104.447 12.2203 104.882 13.2719 105.753 14.0972C106.619 14.9225 107.619 15.3343 108.754 15.3343C109.985 15.3343 111.023 14.9137 111.869 14.0742C112.715 13.2241 113.138 12.1885 113.138 10.9673C113.138 9.74606 112.721 8.69627 111.885 7.86032C111.055 7.02085 110.026 6.60022 108.8 6.60022C107.575 6.60022 106.549 7.02085 105.708 7.86032C104.867 8.69097 104.447 9.71601 104.447 10.9372V10.939Z" fill="#606470"/>
<path d="M121.12 11.8246L124.75 16.7608H122.585L119.236 12.019H118.917V16.7608H117.147V5.17773H119.221C120.771 5.17773 121.891 5.46581 122.578 6.04019C123.338 6.67996 123.718 7.52651 123.718 8.5763C123.718 9.39633 123.48 10.1015 123.004 10.6918C122.528 11.2821 121.9 11.6603 121.12 11.8246ZM118.917 10.4974H119.479C121.156 10.4974 121.993 9.86467 121.993 8.59927C121.993 7.4134 121.177 6.82134 119.547 6.82134H118.917V10.4974Z" fill="#606470"/>
<path d="M128.284 5.17773V16.7625H126.515V5.17773H128.284Z" fill="#606470"/>
<path d="M137.991 13.9486H132.97L131.664 16.7622H129.757L135.56 4.44922L141.158 16.7622H139.221L137.989 13.9486H137.991ZM137.27 12.305L135.531 8.36561L133.708 12.305H137.27Z" fill="#606470"/>
<path d="M149.195 12.0579V16.7625H147.426V5.17773H149.432C150.414 5.17773 151.156 5.24489 151.658 5.38098C152.164 5.51529 152.609 5.77155 152.994 6.14623C153.667 6.7966 154.005 7.61664 154.005 8.60634C154.005 9.66673 153.645 10.508 152.926 11.1265C152.207 11.7469 151.237 12.0562 150.017 12.0562H149.197L149.195 12.0579ZM149.195 10.4373H149.856C151.48 10.4373 152.295 9.81872 152.295 8.58337C152.295 7.34801 151.457 6.78953 149.781 6.78953H149.195V10.4355V10.4373Z" fill="#606470"/>
<path d="M157.599 5.17725V12.1546C157.599 13.1496 157.763 13.8778 158.093 14.3373C158.583 15.0018 159.275 15.3358 160.166 15.3358C161.057 15.3358 161.757 15.0036 162.247 14.3373C162.577 13.8919 162.741 13.1638 162.741 12.1546V5.17725H164.511V12.6354C164.511 13.8566 164.126 14.8622 163.357 15.6522C162.491 16.5323 161.428 16.9724 160.166 16.9724C158.905 16.9724 157.844 16.5323 156.983 15.6522C156.214 14.8622 155.829 13.8566 155.829 12.6354V5.17725H157.599ZM162.856 2.06323L159.757 4.13453L158.914 3.43644L161.353 1.02051L162.858 2.06323H162.856Z" fill="#606470"/>
<path d="M167.321 16.7625V5.17773H169.084C169.869 5.17773 170.494 5.23782 170.961 5.358C171.431 5.47818 171.829 5.68142 172.154 5.96596C172.483 6.2611 172.745 6.62871 172.936 7.06877C173.133 7.51414 173.233 7.9648 173.233 8.419C173.233 9.24965 172.911 9.95304 172.269 10.5274C172.891 10.7377 173.383 11.1053 173.743 11.6302C174.108 12.1498 174.291 12.756 174.291 13.4453C174.291 14.3501 173.967 15.1154 173.319 15.741C172.929 16.1263 172.491 16.3932 172.006 16.5434C171.474 16.6883 170.809 16.7608 170.007 16.7608H167.325L167.321 16.7625ZM169.091 10.1527H169.646C170.304 10.1527 170.785 10.0096 171.093 9.72152C171.399 9.43345 171.553 9.00929 171.553 8.44905C171.553 7.88881 171.396 7.48939 171.082 7.20662C170.768 6.92385 170.313 6.78246 169.715 6.78246H169.093V10.151L169.091 10.1527ZM169.091 15.1189H170.184C170.984 15.1189 171.571 14.9634 171.947 14.6541C172.342 14.3183 172.539 13.8942 172.539 13.3781C172.539 12.8621 172.349 12.4573 171.97 12.118C171.6 11.7822 170.939 11.6161 169.987 11.6161H169.091V15.1207V15.1189Z" fill="#606470"/>
<path d="M178.29 5.17773V15.1189H181.738V16.7625H176.519V5.17773H178.288H178.29Z" fill="#606470"/>
<path d="M185.188 5.17773V16.7625H183.418V5.17773H185.188Z" fill="#606470"/>
<path d="M196.673 5.79888V7.87018C195.65 7.0254 194.592 6.60301 193.497 6.60301C192.291 6.60301 191.277 7.03071 190.452 7.88609C189.622 8.73617 189.207 9.77713 189.207 11.0072C189.207 12.2372 189.622 13.2481 190.452 14.0841C191.282 14.92 192.3 15.3371 193.506 15.3371C194.129 15.3371 194.659 15.2364 195.093 15.0367C195.337 14.9359 195.589 14.8016 195.849 14.632C196.11 14.4623 196.384 14.2573 196.673 14.0169V16.1254C195.661 16.6909 194.598 16.9737 193.483 16.9737C191.807 16.9737 190.377 16.3958 189.191 15.2399C188.011 14.0753 187.421 12.6685 187.421 11.0231C187.421 9.54737 187.915 8.23249 188.902 7.07666C190.117 5.66103 191.69 4.9541 193.619 4.9541C194.673 4.9541 195.691 5.23687 196.673 5.80242V5.79888Z" fill="#606470"/>
<path d="M206.078 13.9486H201.057L199.751 16.7622H197.844L203.647 4.44922L209.245 16.7622H207.307L206.076 13.9486H206.078ZM205.357 12.305L203.618 8.36561L201.795 12.305H205.357Z" fill="#606470"/>
<path d="M48.4017 24.0277H45.3813V25.8163H48.314V26.8714H45.3813V29.358H48.4017V30.4131H44.2451V22.9727H48.4017V24.0277Z" fill="#606470"/>
<path d="M54.153 24.0807L53.2315 24.6198C53.0598 24.3246 52.8952 24.132 52.7395 24.0419C52.5767 23.9394 52.3673 23.8881 52.1096 23.8881C51.7947 23.8881 51.5317 23.9765 51.3241 24.1532C51.1166 24.3264 51.0128 24.5455 51.0128 24.8089C51.0128 25.1712 51.2866 25.4646 51.8323 25.6855L52.5838 25.9894C53.1958 26.2333 53.6431 26.532 53.9258 26.8837C54.2085 27.2354 54.3499 27.6666 54.3499 28.1774C54.3499 28.8613 54.1191 29.4269 53.6574 29.874C53.1922 30.3229 52.6142 30.5491 51.9253 30.5491C51.2722 30.5491 50.7319 30.3583 50.306 29.9765C49.8873 29.5948 49.6243 29.0557 49.5205 28.363L50.671 28.112C50.7229 28.5485 50.8142 28.8507 50.9448 29.0186C51.1792 29.3403 51.521 29.5011 51.9701 29.5011C52.3244 29.5011 52.6196 29.3845 52.8522 29.1494C53.0848 28.9144 53.2029 28.6175 53.2029 28.2587C53.2029 28.1138 53.1832 27.9812 53.1421 27.861C53.1009 27.7409 53.0383 27.6295 52.9524 27.5288C52.8665 27.428 52.7556 27.3326 52.6178 27.2442C52.48 27.1559 52.319 27.071 52.1293 26.9915L51.4029 26.6928C50.3722 26.2616 49.8569 25.6324 49.8569 24.8036C49.8569 24.2451 50.0734 23.7768 50.5064 23.4021C50.9394 23.0239 51.478 22.833 52.1204 22.833C52.9882 22.833 53.6664 23.2501 54.1548 24.086L54.153 24.0807Z" fill="#606470"/>
<path d="M57.9386 24.0277V30.4113H56.8024V24.0277H55.0703V22.9727H59.6653V24.0277H57.9386Z" fill="#606470"/>
<path d="M64.6956 28.6067H61.4713L60.6321 30.4129H59.4082L63.1353 22.5059L66.7301 30.4129H65.4865L64.6956 28.6067ZM64.2322 27.5498L63.1157 25.0208L61.9455 27.5498H64.234H64.2322Z" fill="#606470"/>
<path d="M67.6709 30.4131V22.9727H69.2509C70.0077 22.9727 70.6072 23.0469 71.0455 23.1936C71.5179 23.3385 71.9456 23.5841 72.3285 23.9305C73.1051 24.6304 73.4951 25.5512 73.4951 26.6911C73.4951 27.831 73.0907 28.7606 72.2802 29.4658C71.874 29.8193 71.4481 30.0649 71.0026 30.2028C70.5857 30.3406 69.9952 30.4095 69.2312 30.4095H67.6709V30.4131ZM68.8071 29.358H69.3189C69.8288 29.358 70.2547 29.305 70.5929 29.1989C70.931 29.0858 71.237 28.9091 71.5108 28.6634C72.0708 28.1597 72.35 27.5023 72.35 26.6929C72.35 25.8834 72.0726 25.2154 71.5215 24.7082C71.0241 24.2557 70.2905 24.0295 69.3206 24.0295H68.8089V29.358H68.8071Z" fill="#606470"/>
<path d="M74.5488 26.6593C74.5488 25.6112 74.9371 24.7134 75.7155 23.9606C76.4902 23.2094 77.4189 22.833 78.505 22.833C79.5911 22.833 80.4983 23.2112 81.2659 23.9694C82.0371 24.7276 82.4218 25.6377 82.4218 26.7017C82.4218 27.7656 82.0353 28.6793 81.2606 29.4234C80.484 30.1727 79.5446 30.5456 78.446 30.5456C77.4744 30.5456 76.5994 30.2133 75.8264 29.5488C74.9747 28.8136 74.5488 27.8504 74.5488 26.6575V26.6593ZM75.6958 26.6734C75.6958 27.4952 75.9749 28.1721 76.535 28.7023C77.0914 29.2325 77.7338 29.4976 78.4621 29.4976C79.2529 29.4976 79.9186 29.2272 80.4625 28.6881C81.0065 28.142 81.2767 27.4775 81.2767 26.6928C81.2767 25.9081 81.0083 25.2348 80.4715 24.6975C79.9382 24.1585 79.278 23.8881 78.4907 23.8881C77.7034 23.8881 77.0449 24.1585 76.5045 24.6975C75.9642 25.2313 75.694 25.8887 75.694 26.6734H75.6958Z" fill="#606470"/>
<path d="M86.9346 30.4131V22.9727H88.5145C89.2714 22.9727 89.8708 23.0469 90.3092 23.1936C90.7816 23.3385 91.2092 23.5841 91.5922 23.9305C92.3687 24.6304 92.7588 25.5512 92.7588 26.6911C92.7588 27.831 92.3544 28.7606 91.5438 29.4658C91.1377 29.8193 90.7118 30.0649 90.2663 30.2028C89.8494 30.3406 89.2589 30.4095 88.4949 30.4095H86.9346V30.4131ZM88.0726 29.358H88.5843C89.0943 29.358 89.5201 29.305 89.8583 29.1989C90.1965 29.0858 90.5025 28.9091 90.7762 28.6634C91.3363 28.1597 91.6154 27.5023 91.6154 26.6929C91.6154 25.8834 91.3381 25.2154 90.787 24.7082C90.2895 24.2557 89.5559 24.0295 88.5861 24.0295H88.0744V29.358H88.0726Z" fill="#606470"/>
<path d="M93.8145 26.6593C93.8145 25.6112 94.2027 24.7134 94.9811 23.9606C95.7559 23.2094 96.6845 22.833 97.7706 22.833C98.8567 22.833 99.7639 23.2112 100.532 23.9694C101.303 24.7276 101.687 25.6377 101.687 26.7017C101.687 27.7656 101.301 28.6793 100.526 29.4234C99.7496 30.1727 98.8102 30.5456 97.7116 30.5456C96.74 30.5456 95.865 30.2133 95.092 29.5488C94.2403 28.8136 93.8145 27.8504 93.8145 26.6575V26.6593ZM94.9596 26.6734C94.9596 27.4952 95.2387 28.1721 95.7988 28.7023C96.3553 29.2325 96.9976 29.4976 97.7259 29.4976C98.5168 29.4976 99.1824 29.2272 99.7264 28.6881C100.27 28.142 100.54 27.4775 100.54 26.6928C100.54 25.9081 100.272 25.2348 99.7353 24.6975C99.2021 24.1585 98.5418 23.8881 97.7545 23.8881C96.9672 23.8881 96.3088 24.1585 95.7684 24.6975C95.228 25.2313 94.9578 25.8887 94.9578 26.6734H94.9596Z" fill="#606470"/>
<path d="M108.752 27.2425L111.083 30.4131H109.693L107.542 27.368H107.336V30.4131H106.2V22.9727H107.531C108.526 22.9727 109.246 23.1565 109.688 23.5258C110.176 23.9376 110.419 24.4802 110.419 25.1553C110.419 25.682 110.267 26.1344 109.961 26.5144C109.655 26.8926 109.253 27.1365 108.752 27.2425ZM107.336 26.3889H107.698C108.775 26.3889 109.312 25.9824 109.312 25.1694C109.312 24.4077 108.788 24.0277 107.741 24.0277H107.336V26.3889Z" fill="#606470"/>
<path d="M113.352 22.9727V30.4131H112.216V22.9727H113.352Z" fill="#606470"/>
<path d="M114.785 26.6593C114.785 25.6112 115.173 24.7134 115.952 23.9606C116.727 23.2094 117.655 22.833 118.741 22.833C119.827 22.833 120.735 23.2112 121.502 23.9694C122.273 24.7276 122.658 25.6377 122.658 26.7017C122.658 27.7656 122.272 28.6793 121.497 29.4234C120.72 30.1727 119.781 30.5456 118.682 30.5456C117.711 30.5456 116.836 30.2133 116.063 29.5488C115.211 28.8136 114.785 27.8504 114.785 26.6575V26.6593ZM115.932 26.6734C115.932 27.4952 116.211 28.1721 116.771 28.7023C117.328 29.2325 117.97 29.4976 118.698 29.4976C119.489 29.4976 120.155 29.2272 120.699 28.6881C121.243 28.142 121.513 27.4775 121.513 26.6928C121.513 25.9081 121.245 25.2348 120.708 24.6975C120.175 24.1585 119.514 23.8881 118.727 23.8881C117.94 23.8881 117.281 24.1585 116.741 24.6975C116.201 25.2313 115.93 25.8887 115.93 26.6734H115.932Z" fill="#606470"/>
<path d="M131.045 26.5387H134.156V26.7844C134.156 27.3428 134.09 27.8377 133.956 28.2689C133.825 28.6666 133.607 29.0395 133.297 29.3876C132.598 30.1653 131.708 30.5541 130.629 30.5541C129.55 30.5541 128.674 30.1776 127.922 29.4265C127.171 28.6719 126.795 27.7652 126.795 26.7084C126.795 25.6515 127.178 24.7131 127.942 23.962C128.706 23.2073 129.636 22.8291 130.731 22.8291C131.32 22.8291 131.869 22.9475 132.379 23.1861C132.868 23.4247 133.347 23.81 133.818 24.3419L133.007 25.1072C132.39 24.2942 131.637 23.8877 130.749 23.8877C129.953 23.8877 129.284 24.1599 128.743 24.7025C128.203 25.2362 127.933 25.9042 127.933 26.7066C127.933 27.509 128.234 28.2177 128.835 28.7549C129.397 29.2533 130.007 29.5025 130.663 29.5025C131.223 29.5025 131.724 29.3169 132.17 28.944C132.616 28.5676 132.864 28.1187 132.916 27.5956H131.037V26.5405L131.045 26.5387Z" fill="#606470"/>
<path d="M138.14 27.2425L140.471 30.4131H139.081L136.93 27.368H136.726V30.4131H135.59V22.9727H136.921C137.916 22.9727 138.635 23.1565 139.077 23.5258C139.566 23.9376 139.809 24.4802 139.809 25.1553C139.809 25.682 139.657 26.1344 139.351 26.5144C139.045 26.8926 138.642 27.1365 138.141 27.2425H138.14ZM136.724 26.3889H137.086C138.163 26.3889 138.7 25.9824 138.7 25.1694C138.7 24.4077 138.175 24.0277 137.129 24.0277H136.724V26.3889Z" fill="#606470"/>
<path d="M146.027 28.6067H142.802L141.963 30.4129H140.739L144.466 22.5059L148.061 30.4129H146.818L146.027 28.6067ZM145.563 27.5498L144.447 25.0208L143.277 27.5498H145.565H145.563Z" fill="#606470"/>
<path d="M149.002 30.4127V22.4668L154.495 28.1434V22.974H155.631V30.8669L150.138 25.2061V30.4144H149.002V30.4127Z" fill="#606470"/>
<path d="M157.438 30.4131V22.9727H159.017C159.774 22.9727 160.374 23.0469 160.812 23.1936C161.285 23.3385 161.712 23.5841 162.095 23.9305C162.872 24.6304 163.262 25.5512 163.262 26.6911C163.262 27.831 162.857 28.7606 162.047 29.4658C161.641 29.8193 161.215 30.0649 160.769 30.2028C160.352 30.3406 159.762 30.4095 158.998 30.4095H157.438V30.4131ZM158.574 29.358H159.085C159.595 29.358 160.021 29.305 160.359 29.1989C160.698 29.0858 161.004 28.9091 161.277 28.6634C161.837 28.1597 162.117 27.5023 162.117 26.6929C162.117 25.8834 161.839 25.2154 161.288 24.7082C160.791 24.2557 160.057 24.0295 159.087 24.0295H158.576V29.358H158.574Z" fill="#606470"/>
<path d="M168.848 24.0277H165.828V25.8163H168.76V26.8714H165.828V29.358H168.848V30.4131H164.691V22.9727H168.848V24.0277Z" fill="#606470"/>
<path d="M173.423 30.4131V22.9727H175.003C175.76 22.9727 176.359 23.0469 176.797 23.1936C177.27 23.3385 177.698 23.5841 178.08 23.9305C178.857 24.6304 179.247 25.5512 179.247 26.6911C179.247 27.831 178.843 28.7606 178.032 29.4658C177.626 29.8193 177.2 30.0649 176.755 30.2028C176.338 30.3406 175.747 30.4095 174.983 30.4095H173.423V30.4131ZM174.561 29.358H175.073C175.583 29.358 176.008 29.305 176.347 29.1989C176.685 29.0858 176.991 28.9091 177.265 28.6634C177.825 28.1597 178.104 27.5023 178.104 26.6929C178.104 25.8834 177.826 25.2154 177.275 24.7082C176.778 24.2557 176.044 24.0295 175.074 24.0295H174.563V29.358H174.561Z" fill="#606470"/>
<path d="M180.303 26.6593C180.303 25.6112 180.691 24.7134 181.469 23.9606C182.244 23.2094 183.173 22.833 184.261 22.833C185.349 22.833 186.254 23.2112 187.022 23.9694C187.793 24.7276 188.178 25.6377 188.178 26.7017C188.178 27.7656 187.791 28.6793 187.016 29.4234C186.24 30.1727 185.3 30.5456 184.202 30.5456C183.23 30.5456 182.355 30.2133 181.582 29.5488C180.73 28.8136 180.305 27.8504 180.305 26.6575L180.303 26.6593ZM181.448 26.6734C181.448 27.4952 181.727 28.1721 182.287 28.7023C182.844 29.2325 183.486 29.4976 184.214 29.4976C185.005 29.4976 185.671 29.2272 186.215 28.6881C186.759 28.142 187.029 27.4775 187.029 26.6928C187.029 25.9081 186.76 25.2348 186.224 24.6975C185.69 24.1585 185.03 23.8881 184.243 23.8881C183.456 23.8881 182.797 24.1585 182.257 24.6975C181.716 25.2313 181.446 25.8887 181.446 26.6734H181.448Z" fill="#606470"/>
<path d="M196.947 24.0807L196.025 24.6198C195.854 24.3246 195.689 24.132 195.533 24.0419C195.371 23.9394 195.161 23.8881 194.904 23.8881C194.589 23.8881 194.326 23.9765 194.118 24.1532C193.911 24.3264 193.807 24.5455 193.807 24.8089C193.807 25.1712 194.081 25.4646 194.626 25.6855L195.378 25.9894C195.99 26.2333 196.437 26.532 196.72 26.8837C197.002 27.2354 197.144 27.6666 197.144 28.1774C197.144 28.8613 196.913 29.4269 196.451 29.874C195.986 30.3229 195.408 30.5491 194.719 30.5491C194.066 30.5491 193.526 30.3583 193.1 29.9765C192.681 29.5948 192.418 29.0557 192.314 28.363L193.465 28.112C193.517 28.5485 193.608 28.8507 193.739 29.0186C193.973 29.3403 194.315 29.5011 194.764 29.5011C195.118 29.5011 195.414 29.3845 195.646 29.1494C195.881 28.9144 195.997 28.6175 195.997 28.2587C195.997 28.1138 195.977 27.9812 195.936 27.861C195.895 27.7409 195.832 27.6295 195.746 27.5288C195.66 27.428 195.55 27.3326 195.412 27.2442C195.276 27.1559 195.113 27.071 194.923 26.9915L194.197 26.6928C193.166 26.2616 192.651 25.6324 192.651 24.8036C192.651 24.2451 192.867 23.7768 193.3 23.4021C193.733 23.0239 194.272 22.833 194.914 22.833C195.782 22.833 196.46 23.2501 196.949 24.086L196.947 24.0807Z" fill="#606470"/>
<path d="M199.649 22.9727V27.4528C199.649 28.0926 199.754 28.5592 199.966 28.8543C200.281 29.282 200.724 29.4958 201.297 29.4958C201.869 29.4958 202.319 29.282 202.633 28.8543C202.845 28.568 202.95 28.1014 202.95 27.4528V22.9727H204.086V27.7621C204.086 28.5468 203.839 29.1919 203.346 29.6991C202.789 30.2646 202.107 30.5474 201.297 30.5474C200.486 30.5474 199.806 30.2646 199.253 29.6991C198.76 29.1919 198.513 28.5468 198.513 27.7621V22.9727H199.649Z" fill="#606470"/>
<path d="M207.03 22.9725V29.356H209.245V30.4111H205.894V22.9707H207.03V22.9725Z" fill="#606470"/>
</svg>
