<svg width="749" height="232" viewBox="0 0 749 232" fill="none" xmlns="http://www.w3.org/2000/svg">
<path d="M720.309 52.6641H749V143.376C749 145.742 748.802 148.108 748.406 150.475C746.427 164.016 740.227 175.322 729.806 184.393C719.385 193.464 707.183 198 693.2 198C677.766 198 664.575 192.544 653.626 181.632C642.678 170.72 637.203 157.574 637.203 142.192C637.203 126.811 642.678 113.664 653.626 102.753C664.575 91.8409 677.766 86.3851 693.2 86.3851C700.06 86.3851 706.721 87.634 713.185 90.1318V124.05C707.909 118.134 701.247 115.176 693.2 115.176C685.681 115.176 679.218 117.805 673.809 123.064C668.533 128.323 665.894 134.699 665.894 142.192C665.894 149.686 668.533 156.062 673.809 161.321C679.218 166.579 685.681 169.209 693.2 169.209C697.158 169.209 700.851 168.42 704.281 166.842C707.843 165.265 710.877 163.095 713.383 160.335C716.021 157.442 717.934 154.156 719.121 150.475C719.913 147.845 720.309 145.085 720.309 142.192V52.6641Z" fill="white"/>
<path d="M625.427 133.805C625.822 136.175 626.02 138.546 626.02 140.916V193.259H597.329V142.101C597.329 139.204 596.933 136.439 596.142 133.805C594.295 128.274 590.997 123.797 586.248 120.374C581.499 116.818 576.157 115.041 570.221 115.041C562.702 115.041 556.238 117.674 550.83 122.941C545.553 128.209 542.915 134.595 542.915 142.101C542.915 147.105 544.102 151.714 546.476 155.927C548.983 160.009 552.281 163.301 556.37 165.803C560.591 168.174 565.208 169.359 570.221 169.359C578.268 169.359 584.929 166.396 590.206 160.47V194.246C583.742 196.748 577.08 197.999 570.221 197.999C554.787 197.999 541.596 192.534 530.647 181.605C519.698 170.676 514.224 157.507 514.224 142.101C514.224 126.694 519.698 113.526 530.647 102.597C541.596 91.6674 554.787 86.2026 570.221 86.2026C584.204 86.2026 596.406 90.7456 606.827 99.8315C617.248 108.917 623.448 120.242 625.427 133.805Z" fill="white"/>
<path d="M455.107 169.359C458.134 169.359 461.03 168.832 463.794 167.779C466.689 166.725 469.256 165.342 471.493 163.631C473.863 161.787 475.903 159.68 477.614 157.31L504.464 168.174C501.305 174.099 497.225 179.301 492.223 183.778C487.353 188.255 481.694 191.744 475.245 194.246C468.795 196.748 462.083 197.999 455.107 197.999C439.708 197.999 426.546 192.534 415.622 181.605C404.697 170.676 399.235 157.507 399.235 142.101C399.235 126.694 404.697 113.526 415.622 102.597C426.546 91.6674 439.708 86.2026 455.107 86.2026C462.609 86.2026 469.717 87.6511 476.429 90.5481C483.273 93.445 489.196 97.3955 494.198 102.399C499.331 107.403 503.345 113.197 506.241 119.781L479.588 130.645C477.351 125.904 473.994 122.151 469.519 119.386C465.176 116.489 460.372 115.041 455.107 115.041C447.605 115.041 441.156 117.674 435.759 122.941C430.495 128.209 427.862 134.595 427.862 142.101C427.862 147.105 429.047 151.714 431.416 155.927C433.917 160.009 437.207 163.301 441.287 165.803C445.499 168.174 450.106 169.359 455.107 169.359Z" fill="white"/>
<path d="M387.032 193.207H358.734V86.6189H387.032V193.207ZM386.838 69.7064C382.961 73.6395 378.245 75.6061 372.689 75.6061C367.262 75.6061 362.61 73.6395 358.734 69.7064C354.857 65.7732 352.919 61.0534 352.919 55.5471C352.919 49.9096 354.857 45.1242 358.734 41.1911C362.61 37.1269 367.262 35.0947 372.689 35.0947C378.245 35.0947 382.961 37.1269 386.838 41.1911C390.843 45.1242 392.846 49.9096 392.846 55.5471C392.846 61.0534 390.843 65.7732 386.838 69.7064Z" fill="white"/>
<path d="M293.792 118.755C293.661 121.245 294.907 123.473 297.531 125.439C300.155 127.274 303.501 128.781 307.568 129.96C311.635 131.009 315.965 132.45 320.557 134.285C325.28 135.989 329.61 137.889 333.546 139.986C337.481 142.082 340.63 145.228 342.992 149.421C345.353 153.484 346.337 158.333 345.944 163.968C345.681 166.196 345.222 168.555 344.566 171.044C343.91 173.403 342.533 176.352 340.433 179.89C338.465 183.298 335.907 186.246 332.758 188.736C329.741 191.226 325.411 193.192 319.77 194.633C314.128 196.206 307.634 196.73 300.287 196.206C290.184 195.289 282.181 192.995 276.277 189.326C270.504 185.525 266.241 181.201 263.485 176.352L287.298 159.84C288.216 162.592 290.053 165.082 292.808 167.31C295.563 169.537 298.647 170.782 302.058 171.044C310.979 171.831 315.702 169.341 316.227 163.575C316.358 161.347 315.44 159.512 313.472 158.071C311.635 156.629 309.077 155.515 305.797 154.729C302.648 153.811 299.106 152.96 295.17 152.173C291.365 151.256 287.495 150.076 283.559 148.635C279.754 147.062 276.277 145.162 273.128 142.934C270.111 140.706 267.684 137.627 265.847 133.695C264.141 129.633 263.551 124.915 264.076 119.542C264.863 109.32 269.717 101.26 278.639 95.3631C287.56 89.3348 298.909 86.9103 312.685 88.0898C327.248 89.2692 338.531 95.5596 346.534 106.961L327.051 122.884C325.346 118.428 321.803 115.152 316.424 113.055C311.045 110.958 305.928 110.499 301.074 111.679C296.351 112.727 293.923 115.086 293.792 118.755Z" fill="white"/>
<path d="M2.90882e-05 28.5698C-0.0221326 12.9505 12.6219 0.270514 28.2412 0.248352L203.257 2.90882e-05C218.876 -0.0221326 231.556 12.6219 231.578 28.2412L231.827 203.257C231.849 218.876 219.205 231.556 203.585 231.578L28.5698 231.827C12.9505 231.849 0.270514 219.205 0.248352 203.585L2.90882e-05 28.5698Z" fill="#16A34A"/>
<path d="M146.444 115.769C146.28 118.918 147.838 121.736 151.118 124.222C154.398 126.542 158.58 128.448 163.664 129.94C168.748 131.266 174.16 133.089 179.9 135.409C185.804 137.564 191.216 139.967 196.136 142.619C201.056 145.271 204.992 149.249 207.944 154.552C210.896 159.69 212.126 165.823 211.634 172.95C211.306 175.767 210.732 178.75 209.912 181.899C209.092 184.883 207.37 188.612 204.746 193.087C202.286 197.396 199.088 201.125 195.152 204.274C191.38 207.423 185.968 209.909 178.916 211.733C171.864 213.722 163.746 214.384 154.562 213.722C141.934 212.561 131.93 209.661 124.55 205.02C117.334 200.214 112.004 194.744 108.56 188.612L138.326 167.729C139.474 171.209 141.77 174.358 145.214 177.176C148.658 179.993 152.512 181.568 156.776 181.899C167.928 182.894 173.832 179.745 174.488 172.452C174.652 169.635 173.504 167.314 171.044 165.491C168.748 163.668 165.55 162.259 161.45 161.265C157.514 160.105 153.086 159.027 148.166 158.033C143.41 156.873 138.572 155.381 133.652 153.558C128.896 151.569 124.55 149.166 120.614 146.348C116.842 143.531 113.808 139.636 111.512 134.664C109.38 129.526 108.642 123.559 109.298 116.764C110.282 103.836 116.35 93.6431 127.502 86.1848C138.654 78.5607 152.84 75.4945 170.06 76.9862C188.264 78.4779 202.368 86.4334 212.372 100.853L188.018 120.99C185.886 115.355 181.458 111.211 174.734 108.56C168.01 105.908 161.614 105.328 155.546 106.819C149.642 108.145 146.608 111.129 146.444 115.769Z" fill="white"/>
<path d="M106.351 162.238L115.256 175.11L98.3127 186.831L110.034 203.774L97.1626 212.679L85.4412 195.736L68.498 207.457L59.5933 194.585L76.5365 182.864L64.8151 165.921L77.6867 157.016L89.4081 173.959L106.351 162.238Z" fill="white"/>
</svg>
